<?xml version="1.0" encoding="UTF-8" standalone="no"?>
<svg width="119px" height="26px" viewBox="0 0 119 26" version="1.1" xmlns="http://www.w3.org/2000/svg" xmlns:xlink="http://www.w3.org/1999/xlink">
    <!-- Generator: Sketch 3.7.1 (28215) - http://www.bohemiancoding.com/sketch -->
    <title>CARDS </title>
    <desc>Created with Sketch.</desc>
    <defs></defs>
    <g id="Page-1" stroke="none" stroke-width="1" fill="none" fill-rule="evenodd">
        <g id="Desktop-HD-Copy-7" transform="translate(-727.000000, -367.000000)" fill="#FFFFFF">
            <g id="HEADER" transform="translate(-124.000000, -60.000000)">
                <g id="BLU" transform="translate(96.000000, 55.000000)">
                    <g id="Group-2" transform="translate(754.000000, 313.000000)">
                        <path d="M19.5705938,62.1334839 L19.5705938,66.3720053 C17.5173488,64.641779 15.3929835,63.7766788 13.1974344,63.7766788 C10.7782644,63.7766788 8.74029684,64.6520169 7.08347039,66.4027193 C5.41647936,68.1431836 4.58299634,70.272661 4.58299634,72.7912154 C4.58299634,75.2790556 5.41647936,77.3778194 7.08347039,79.0875697 C8.75046142,80.79732 10.7935112,81.6521823 13.2126812,81.6521823 C14.4629244,81.6521823 15.525107,81.4474249 16.3992609,81.0379039 C16.8871607,80.8331433 17.3928409,80.5567208 17.9163168,80.2086279 C18.4397926,79.860535 18.9912128,79.4407823 19.5705938,78.9493571 L19.5705938,83.2646633 C17.5376779,84.4215602 15.4031483,85 13.1669408,85 C9.80246497,85 6.93101435,83.8175258 4.55250276,81.4525418 C2.18415574,79.0670818 1,76.1902398 1,72.8219293 C1,69.8017117 1.99103163,67.1091513 3.97312462,64.7441674 C6.41262369,61.8468061 9.56867827,60.3981472 13.441383,60.3981472 C15.5556156,60.3981472 17.5986654,60.976587 19.5705938,62.1334839 L19.5705938,62.1334839 Z M37.7825832,66.747739 L29.9609785,84.5700051 L26.1340334,84.5700051 L37.7825832,59.3692308 L49.0194696,84.5700051 L45.1315374,84.5700051 L37.7825832,66.747739 Z M64.1516069,74.4651242 L71.4395739,84.5700051 L67.0942379,84.5700051 L60.3704023,74.8644052 L59.730037,74.8644052 L59.730037,84.5700051 L56.1775342,84.5700051 L56.1775342,60.8588561 L60.3399087,60.8588561 C63.45027,60.8588561 65.6966084,61.4475337 67.0789912,62.6249067 C68.6036781,63.935374 69.3660101,65.6655744 69.3660101,67.8155598 C69.3660101,69.494596 68.888282,70.9381359 67.9328116,72.146223 C66.9773411,73.35431 65.7169521,74.1272694 64.1516069,74.4651242 L64.1516069,74.4651242 Z M59.730037,71.746942 L60.8582996,71.746942 C64.2227754,71.746942 65.9049881,70.4518511 65.9049881,67.8616306 C65.9049881,65.4352185 64.2685154,64.2220307 60.9955208,64.2220307 L59.730037,64.2220307 L59.730037,71.746942 Z M79.1922634,84.5700051 L79.1922634,60.8588561 L84.1322243,60.8588561 C86.5005713,60.8588561 88.3708259,61.0943271 89.7430441,61.5652763 C91.2169082,62.0259875 92.5535303,62.8091847 93.7529507,63.9148915 C96.1822852,66.1467811 97.3969342,69.0799314 97.3969342,72.7144306 C97.3969342,76.3591677 96.131463,79.3076749 93.6004828,81.5600406 C92.3299103,82.6862234 90.9983704,83.4694206 89.605823,83.9096557 C88.3047568,84.3498908 86.4599133,84.5700051 84.0712372,84.5700051 L79.1922634,84.5700051 Z M82.7447662,81.2068304 L84.3456794,81.2068304 C85.9415184,81.2068304 87.2679761,81.0379055 88.3250924,80.7000507 C89.3822087,80.3417198 90.3376648,79.7735179 91.1914895,78.9954279 C92.9397971,77.3880579 93.8139379,75.294413 93.8139379,72.7144306 C93.8139379,70.113972 92.9499616,68.0049704 91.2219831,66.3873623 C89.6668024,64.9438007 87.3747241,64.2220307 84.3456794,64.2220307 L82.7447662,64.2220307 L82.7447662,81.2068304 Z M119.390128,64.3909573 L116.508484,66.110937 C115.969762,65.1690386 115.456458,64.5547663 114.968558,64.2681016 C114.460329,63.9404848 113.804724,63.7766788 113.001722,63.7766788 C112.015758,63.7766788 111.197521,64.0582203 110.546988,64.6213117 C109.896455,65.1741651 109.571194,65.8703404 109.571194,66.7098585 C109.571194,67.8667554 110.425005,68.7984018 112.132655,69.5048256 L114.480661,70.4723141 C116.391602,71.2504041 117.789211,72.1999667 118.673529,73.3210306 C119.557847,74.4420944 120,75.8165287 120,77.4443748 C120,79.6250743 119.278326,81.4269398 117.834955,82.8500253 C116.381421,84.2833489 114.577235,85 112.422344,85 C110.379263,85 108.691969,84.3908466 107.360409,83.1725215 C106.049178,81.9541965 105.230942,80.2393529 104.905675,78.0279393 L108.503918,77.2293773 C108.666551,78.6217488 108.951155,79.5841088 109.357739,80.1164862 C110.089588,81.1402887 111.156853,81.6521823 112.559565,81.6521823 C113.667504,81.6521823 114.587385,81.2785 115.319235,80.5311241 C116.051084,79.7837482 116.417004,78.8367451 116.417004,77.6900862 C116.417004,77.229375 116.353476,76.8070628 116.226419,76.4231368 C116.099362,76.0392109 115.901155,75.6860043 115.631794,75.3635065 C115.362432,75.0410087 115.014301,74.7389914 114.587389,74.4574457 C114.160476,74.1759 113.652255,73.9071559 113.062709,73.6512052 L110.790937,72.6990736 C107.568765,71.3271782 105.957704,69.3205552 105.957704,66.6791446 C105.957704,64.8977281 106.633638,63.4081177 107.985527,62.2102687 C109.337416,61.0021817 111.019629,60.3981472 113.032216,60.3981472 C115.746158,60.3981472 117.865441,61.7290706 119.390128,64.3909573 L119.390128,64.3909573 Z" id="CARDS-"></path>
                    </g>
                </g>
            </g>
        </g>
    </g>
</svg>