<?xml version="1.0" encoding="UTF-8" standalone="no"?>
<svg width="280px" height="48px" viewBox="0 0 280 48" version="1.1" xmlns="http://www.w3.org/2000/svg" xmlns:xlink="http://www.w3.org/1999/xlink">
    <!-- Generator: Sketch 3.7.1 (28215) - http://www.bohemiancoding.com/sketch -->
    <title>ATTRACTI </title>
    <desc>Created with Sketch.</desc>
    <defs></defs>
    <g id="Page-1" stroke="none" stroke-width="1" fill="none" fill-rule="evenodd">
        <g id="Desktop-HD-Copy-7" transform="translate(-726.000000, -308.000000)" fill="#FFFFFF">
            <g id="HEADER" transform="translate(-124.000000, -60.000000)">
                <g id="BLU" transform="translate(96.000000, 55.000000)">
                    <g id="Group-2" transform="translate(754.000000, 313.000000)">
                        <path d="M31.0406048,35.9398053 L12.1127083,35.9398053 L7.18744631,46.5854822 L0,46.5854822 L21.8773266,0 L42.9815016,46.5854822 L35.6795143,46.5854822 L31.0406048,35.9398053 Z M28.3202566,29.72273 L21.7627856,14.8187823 L14.890327,29.72273 L28.3202566,29.72273 Z M61.7627856,8.97075709 L61.7627856,46.5854822 L55.0907737,46.5854822 L55.0907737,8.97075709 L44.925262,8.97075709 L44.925262,2.75368177 L71.8996621,2.75368177 L71.8996621,8.97075709 L61.7627856,8.97075709 Z M93.5731058,8.97075709 L93.5731058,46.5854822 L86.9010939,46.5854822 L86.9010939,8.97075709 L76.7355822,8.97075709 L76.7355822,2.75368177 L103.709982,2.75368177 L103.709982,8.97075709 L93.5731058,8.97075709 Z M128.161045,27.9058678 L141.848691,46.5854822 L133.687647,46.5854822 L121.059504,28.6439681 L119.856824,28.6439681 L119.856824,46.5854822 L113.184812,46.5854822 L113.184812,2.75368177 L121.002234,2.75368177 C126.843853,2.75368177 131.062736,3.84189564 133.659012,6.01835602 C136.52255,8.44085106 137.954298,11.6392536 137.954298,15.6136595 C137.954298,18.7174813 137.057069,21.3859709 135.262585,23.6192085 C133.468101,25.8524462 131.100944,27.2813183 128.161045,27.9058678 L128.161045,27.9058678 Z M119.856824,22.8811083 L121.975832,22.8811083 C128.294707,22.8811083 131.454098,20.4870378 131.454098,15.6988249 C131.454098,11.2134239 128.380612,8.97075709 122.233549,8.97075709 L119.856824,8.97075709 L119.856824,22.8811083 Z M177.982933,35.9398053 L159.055037,35.9398053 L154.129775,46.5854822 L146.942329,46.5854822 L168.819655,0 L189.92383,46.5854822 L182.621843,46.5854822 L177.982933,35.9398053 Z M175.262585,29.72273 L168.705114,14.8187823 L161.832656,29.72273 L175.262585,29.72273 Z M229.580207,5.10992493 L229.580207,12.9451431 C225.723975,9.74669266 221.734171,8.14749141 217.610675,8.14749141 C213.067194,8.14749141 209.239654,9.76561812 206.127942,13.0019201 C202.99714,16.2192963 201.431762,20.1557917 201.431762,24.8115244 C201.431762,29.4104798 202.99714,33.2901988 206.127942,36.4507978 C209.258745,39.6113968 213.095829,41.1916726 217.63931,41.1916726 C219.987412,41.1916726 221.982314,40.8131634 223.624077,40.0561337 C224.540409,39.6776189 225.490135,39.1666315 226.473283,38.5231562 C227.456432,37.879681 228.492063,37.1037372 229.580207,36.1953016 L229.580207,44.1724621 C225.762156,46.311071 221.753262,47.3803595 217.553405,47.3803595 C211.234529,47.3803595 205.841612,45.194469 201.374492,40.8226225 C196.926462,36.4129245 194.70248,31.0948706 194.70248,24.8683013 C194.70248,19.2852073 196.563752,14.3078117 200.286352,9.93596513 C204.868014,4.57998001 210.795451,1.90202761 218.068839,1.90202761 C222.039613,1.90202761 225.876697,2.97131602 229.580207,5.10992493 L229.580207,5.10992493 Z M253.716282,8.97075709 L253.716282,46.5854822 L247.04427,46.5854822 L247.04427,8.97075709 L236.878758,8.97075709 L236.878758,2.75368177 L263.853158,2.75368177 L263.853158,8.97075709 L253.716282,8.97075709 Z M280,2.75368177 L280,46.5854822 L273.327988,46.5854822 L273.327988,2.75368177 L280,2.75368177 Z" id="ATTRACTI-"></path>
                    </g>
                </g>
            </g>
        </g>
    </g>
</svg>