<?xml version="1.0" encoding="UTF-8" standalone="no"?>
<svg width="129px" height="49px" viewBox="0 0 129 49" version="1.1" xmlns="http://www.w3.org/2000/svg" xmlns:xlink="http://www.w3.org/1999/xlink">
    <!-- Generator: Sketch 3.7.1 (28215) - http://www.bohemiancoding.com/sketch -->
    <title>Group 2</title>
    <desc>Created with Sketch.</desc>
    <defs></defs>
    <g id="Page-1" stroke="none" stroke-width="1" fill="none" fill-rule="evenodd">
        <g id="Desktop-HD-Copy-12" transform="translate(-100.000000, -23.000000)" fill="#FFFFFF">
            <g id="Group-2" transform="translate(100.000000, 23.000000)">
                <path d="M14.3008501,16.687837 L5.58049776,16.687837 L3.31135919,21.6309167 L0,21.6309167 L10.0791969,0 L19.8021918,21.6309167 L16.438062,21.6309167 L14.3008501,16.687837 Z M13.0475468,13.8010785 L10.0264262,6.88076693 L6.86018637,13.8010785 L13.0475468,13.8010785 Z M28.4549977,4.16536848 L28.4549977,21.6309167 L25.3811065,21.6309167 L25.3811065,4.16536848 L20.69771,4.16536848 L20.69771,1.27860995 L33.1252015,1.27860995 L33.1252015,4.16536848 L28.4549977,4.16536848 Z M43.1104666,4.16536848 L43.1104666,21.6309167 L40.0365754,21.6309167 L40.0365754,4.16536848 L35.3531789,4.16536848 L35.3531789,1.27860995 L47.7806704,1.27860995 L47.7806704,4.16536848 L43.1104666,4.16536848 Z M59.0456241,12.9574596 L65.3517185,21.6309167 L61.5918087,21.6309167 L55.7738429,13.3001797 L55.219751,13.3001797 L55.219751,21.6309167 L52.1458598,21.6309167 L52.1458598,1.27860995 L55.7474576,1.27860995 C58.4387749,1.27860995 60.382475,1.78389748 61.578616,2.79448772 C62.8978892,3.91931859 63.5575159,5.40442457 63.5575159,7.24985021 C63.5575159,8.69103976 63.1441499,9.93009268 62.3174053,10.9670461 C61.4906608,12.0039996 60.400078,12.6674641 59.0456241,12.9574596 L59.0456241,12.9574596 Z M55.219751,10.6243259 L56.1960082,10.6243259 C59.1072045,10.6243259 60.5627807,9.51269336 60.5627807,7.28939485 C60.5627807,5.20670019 59.1467821,4.16536848 56.3147422,4.16536848 L55.219751,4.16536848 L55.219751,10.6243259 Z M81.99928,16.687837 L73.2789277,16.687837 L71.0097892,21.6309167 L67.69843,21.6309167 L77.7776269,0 L87.5006218,21.6309167 L84.1364919,21.6309167 L81.99928,16.687837 Z M80.7459767,13.8010785 L77.7248562,6.88076693 L74.5586163,13.8010785 L80.7459767,13.8010785 Z M105.770881,2.37267825 L105.770881,6.0107849 C103.99426,4.52565664 102.1561,3.78310365 100.256347,3.78310365 C98.1631,3.78310365 96.3996979,4.53444425 94.9660877,6.03714799 C93.5236823,7.53106399 92.8024904,9.35888673 92.8024904,11.5206711 C92.8024904,13.6560922 93.5236823,15.4575521 94.9660877,16.9251049 C96.4084931,18.3926576 98.1762926,19.126423 100.269539,19.126423 C101.351343,19.126423 102.270423,18.9506708 103.026807,18.5991612 C103.448974,18.4234064 103.886526,18.1861409 104.339477,17.8873577 C104.792427,17.5885745 105.269557,17.2282825 105.770881,16.8064709 L105.770881,20.5104853 C104.01185,21.5035001 102.164896,22 100.229961,22 C97.3187653,22 94.8341713,20.9850311 92.7761051,18.9550629 C90.7268341,16.9075192 89.7022139,14.438201 89.7022139,11.5470342 C89.7022139,8.95465051 90.5597286,6.64350925 92.2747838,4.61354104 C94.3856209,2.12661029 97.1164755,0.883163571 100.467429,0.883163571 C102.296822,0.883163571 104.064621,1.3796635 105.770881,2.37267825 L105.770881,2.37267825 Z M116.890716,4.16536848 L116.890716,21.6309167 L113.816824,21.6309167 L113.816824,4.16536848 L109.133428,4.16536848 L109.133428,1.27860995 L121.560919,1.27860995 L121.560919,4.16536848 L116.890716,4.16536848 Z M129,1.27860995 L129,21.6309167 L125.926109,21.6309167 L125.926109,1.27860995 L129,1.27860995 Z" id="ATTRACTI-"></path>
                <path d="M43.51938,37.4020371 L43.51938,39.5518274 C42.4668763,38.6742517 41.3779159,38.2354703 40.2524664,38.2354703 C39.0123877,38.2354703 37.9677152,38.6794443 37.1184176,39.5674056 C36.2639096,40.4501742 35.836662,41.5302513 35.836662,42.8076693 C35.836662,44.069509 36.2639096,45.134008 37.1184176,46.0011983 C37.9729256,46.8683886 39.0202032,47.3019772 40.2602819,47.3019772 C40.9011629,47.3019772 41.4456431,47.1981237 41.8937388,46.9904134 C42.1438387,46.8865583 42.4030529,46.746356 42.6713893,46.5698023 C42.9397256,46.3932486 43.2223864,46.1803488 43.51938,45.9310965 L43.51938,48.1198322 C42.4772971,48.7066137 41.3831264,49 40.2368352,49 C38.5121879,49 37.0402679,48.4002457 35.8210308,47.200719 C34.6070042,45.9908068 34,44.5316642 34,42.8232475 C34,41.2913844 34.5080078,39.92571 35.5240387,38.7261833 C36.7745382,37.2566334 38.3923477,36.5218694 40.3775157,36.5218694 C41.4612819,36.5218694 42.5085596,36.8152557 43.51938,37.4020371 L43.51938,37.4020371 Z M52.8549376,39.7424006 L48.8455436,48.7819053 L46.8838323,48.7819053 L52.8549376,36 L58.6150223,48.7819053 L56.6220486,48.7819053 L52.8549376,39.7424006 Z M66.3718321,43.6566806 L70.1076808,48.7819053 L67.8802396,48.7819053 L64.4335675,43.8591971 L64.1053131,43.8591971 L64.1053131,48.7819053 L62.2842822,48.7819053 L62.2842822,36.7555422 L64.4179364,36.7555422 C66.0123233,36.7555422 67.1638076,37.0541212 67.872424,37.6512882 C68.6539862,38.315961 69.0447615,39.1935236 69.0447615,40.2840024 C69.0447615,41.1356144 68.7998757,41.867782 68.3100967,42.4805273 C67.8203177,43.0932725 67.174236,43.4853197 66.3718321,43.6566806 L66.3718321,43.6566806 Z M64.1053131,42.2780108 L64.6836662,42.2780108 C66.4083135,42.2780108 67.2706242,41.621137 67.2706242,40.3073697 C67.2706242,39.0766865 66.43176,38.4613541 64.7540064,38.4613541 L64.1053131,38.4613541 L64.1053131,42.2780108 Z M74.0817485,48.7819053 L74.0817485,36.7555422 L76.6139973,36.7555422 C77.828024,36.7555422 78.7867259,36.8749738 79.4901319,37.1138406 C80.245642,37.3475146 80.9308012,37.7447545 81.5456302,38.3055722 C82.7909193,39.437593 83.4135545,40.9252954 83.4135545,42.7687238 C83.4135545,44.617345 82.7648676,46.1128363 81.4674744,47.2552427 C80.8161725,47.8264458 80.1336184,48.2236857 79.4197916,48.4469742 C78.7528585,48.6702628 77.8071825,48.7819053 76.582735,48.7819053 L74.0817485,48.7819053 Z M75.9027793,47.0760935 L76.7234155,47.0760935 C77.5414506,47.0760935 78.2213995,46.9904143 78.7632827,46.8190533 C79.3051658,46.6373069 79.7949374,46.3491132 80.2326122,45.9544638 C81.1288036,45.139201 81.5768925,44.0772983 81.5768925,42.7687238 C81.5768925,41.4497637 81.1340139,40.380072 80.2482434,39.5596165 C79.45105,38.8274379 78.2761191,38.4613541 76.7234155,38.4613541 L75.9027793,38.4613541 L75.9027793,47.0760935 Z M94.6873767,38.5470342 L93.2102315,39.4194128 C92.9340795,38.9416793 92.6709575,38.6301186 92.4208576,38.4847214 C92.1603369,38.3185532 91.8242702,38.2354703 91.4126474,38.2354703 C90.9072372,38.2354703 90.4878051,38.378269 90.1543386,38.6638706 C89.820872,38.9442794 89.6541413,39.2973815 89.6541413,39.7231875 C89.6541413,40.309969 90.0918095,40.7825027 90.9671592,41.1408029 L92.170759,41.6315159 C93.1503169,42.0261653 93.8667382,42.5077863 94.3200443,43.076393 C94.7733504,43.6449998 95,44.3421169 95,45.1677651 C95,46.2738222 94.6300661,47.1877336 93.8901872,47.9095267 C93.1450979,48.6365125 92.2202632,49 91.1156553,49 C90.0683619,49 89.2034461,48.6910356 88.5208817,48.0730977 C87.8487383,47.4551597 87.4293062,46.5853861 87.2625729,45.4637507 L89.1070505,45.0587178 C89.1904171,45.7649326 89.3363065,46.2530444 89.5447231,46.5230677 C89.919873,47.0423433 90.4669583,47.3019772 91.1859955,47.3019772 C91.7539307,47.3019772 92.2254662,47.1124445 92.600616,46.7333733 C92.9757659,46.3543021 93.163338,45.8739793 93.163338,45.2923907 C93.163338,45.0587166 93.1307734,44.8445186 93.0656432,44.6497903 C93.000513,44.4550619 92.8989115,44.2759145 92.7608355,44.1123427 C92.6227595,43.9487709 92.4443055,43.7955869 92.2254681,43.6527861 C92.0066306,43.5099853 91.7461138,43.3736775 91.4439098,43.2438586 L90.2793879,42.7609347 C88.6276865,42.0651054 87.8018481,41.0473404 87.8018481,39.7076093 C87.8018481,38.8040698 88.1483355,38.0485351 88.8413206,37.4409826 C89.5343058,36.8282374 90.3966165,36.5218694 91.4282786,36.5218694 C92.8194593,36.5218694 93.9058145,37.1969176 94.6873767,38.5470342 L94.6873767,38.5470342 Z" id="CARDS-"></path>
            </g>
        </g>
    </g>
</svg>